<svg width="665" height="400" viewBox="0 0 665 400" fill="none" xmlns="http://www.w3.org/2000/svg">
<path d="M385.48 257.76C394.44 257.76 400.87 252.72 400.87 244.4C400.87 237.05 396.74 232.99 389.33 230.13L382.75 227.61C377.71 225.65 375.33 223.62 375.33 219.07C375.33 214.52 379.6 211.44 384.99 211.44C389.54 211.44 392.55 213.47 395.14 216.55L399.27 213.19C396.61 209.41 391.5 206.4 385.21 206.4C376.6 206.4 370.03 211.37 370.03 219.13C370.03 225.92 373.32 229.76 381.02 232.7L388.36 235.5C392.91 237.25 395.57 240.19 395.57 244.53C395.57 249.64 391.09 252.72 385.57 252.72C379.55 252.72 375.56 250.06 372.77 245.65L368.36 248.8C370.58 253.77 377.22 257.76 385.48 257.76ZM335.91 257.76C347.25 257.76 355.08 250.06 355.08 237.68V207.24H349.76V237.82C349.76 247.41 344.23 252.73 335.91 252.73C327.58 252.73 322.05 247.41 322.05 237.82V207.24H316.73V237.68C316.73 250.07 324.57 257.76 335.91 257.76ZM270.8 228.93V212.21H281.09C287.39 212.21 291.02 215.08 291.02 220.61C291.02 226.14 287.38 228.94 281.09 228.94H270.8V228.93ZM265.48 256.92H270.8V233.83H276.47L296.13 256.92H303.06L283.47 233.9C291.52 233.27 296.41 228.16 296.41 220.61C296.41 212.49 290.81 207.25 281.72 207.25H265.48V256.92ZM235.88 256.92H241.2V207.24H235.88V256.92ZM192.08 256.92H196.42L217.76 207.24H211.88L194.25 248.24L176.62 207.24H170.67L192.08 256.92Z" fill="#2B2B2A"/>
<path d="M386.03 200.51C394.99 200.51 401.42 195.47 401.42 187.15C401.42 179.8 397.29 175.74 389.87 172.88L383.29 170.36C378.25 168.4 375.87 166.37 375.87 161.82C375.87 157.27 380.14 154.19 385.53 154.19C390.08 154.19 393.09 156.22 395.68 159.3L399.81 155.94C397.15 152.16 392.04 149.15 385.74 149.15C377.13 149.15 370.56 154.12 370.56 161.88C370.56 168.67 373.85 172.51 381.54 175.45L388.89 178.25C393.44 180 396.1 182.94 396.1 187.28C396.1 192.39 391.62 195.47 386.1 195.47C380.08 195.47 376.09 192.81 373.29 188.4L368.88 191.55C371.13 196.52 377.78 200.51 386.03 200.51ZM334.18 199.67H338.52L359.86 149.99H353.98L336.35 190.99L318.72 149.99H312.77L334.18 199.67Z" stroke="#2B2B2A" stroke-width="2" stroke-miterlimit="1.788"/>
<path d="M275.83 169.73V160.21H282.97C286.26 160.21 288.64 161.96 288.64 164.97C288.64 167.84 286.26 169.73 282.97 169.73H275.83V169.73ZM264.71 199.67H275.83V179.17H277.65L294.16 199.67H307.52L289.96 177.77C296.26 175.53 299.68 171.4 299.68 164.97C299.68 156.71 293.66 150 284.29 150H264.7V199.67H264.71ZM236.79 199.67H247.92V149.99H236.79V199.67ZM169.4 199.67H179.4L189.34 166.92L199.2 199.67H209.28L224.74 149.99H212.85L203.82 181.69L194.16 149.99H184.38L174.72 181.55L165.69 149.99H153.94L169.4 199.67Z" fill="#2B2B2A"/>
<path d="M515.59 71.5702C518.4 71.6502 521.06 72.8302 523.02 74.8402C586.16 137.98 586.16 240.69 523.02 303.83C459.88 366.97 357.17 366.97 294.03 303.83C289.74 299.67 289.64 292.83 293.8 288.55C297.96 284.26 304.8 284.16 309.08 288.32C309.16 288.4 309.23 288.47 309.31 288.55C364.19 343.43 452.85 343.43 507.74 288.55C562.62 233.67 562.62 145.01 507.74 90.1202C503.46 85.9602 503.36 79.1202 507.52 74.8402C509.63 72.6702 512.56 71.4802 515.59 71.5702Z" fill="black"/>
<path d="M408.53 49.01C458.59 49.01 505 75.76 530 119.17C555.08 162.57 555.08 216.1 530 259.5C505 302.91 458.59 329.66 408.53 329.66C402.56 329.75 397.65 324.99 397.56 319.02C397.47 313.05 402.23 308.14 408.2 308.05C408.31 308.05 408.42 308.05 408.54 308.05C450.92 308.05 490.15 285.43 511.29 248.7V248.69L511.3 248.68C532.53 211.94 532.53 166.71 511.3 129.98L511.29 129.97V129.96C490.15 93.24 450.92 70.61 408.54 70.61C402.57 70.7 397.66 65.94 397.57 59.97C397.48 54 402.24 49.09 408.21 49C408.3 49.01 408.41 49.01 408.53 49.01Z" fill="#DE0000"/>
<path d="M408.53 70.7197C438.94 70.7197 469.36 82.2997 492.51 105.45C538.74 151.68 538.73 227.02 492.52 273.32C488.35 277.59 481.5 277.66 477.24 273.48C472.97 269.31 472.9 262.46 477.08 258.2C477.13 258.15 477.18 258.1 477.23 258.05C515.2 220.01 515.2 158.69 477.24 120.73C439.19 82.6797 377.9 82.6797 339.85 120.73C335.69 125.01 328.85 125.11 324.57 120.96C320.29 116.81 320.19 109.96 324.34 105.68C324.42 105.6 324.49 105.53 324.57 105.45C347.7 82.2897 378.11 70.7197 408.53 70.7197Z" fill="#FFCF00"/>
<path d="M112.34 196.67H125.44L121.48 209.15H108.38L112.34 196.67ZM130.96 179L126.73 192.37H113.64L117.8 179H113.23L109.07 192.37H98.97V196.67H107.7L103.75 209.15H94V213.45H102.46L98.08 227.43H102.72L107.01 213.45H120.18L115.82 227.43H120.39L124.69 213.45H134.92V209.15H126.05L130.01 196.67H139.83V192.37H131.31L135.47 179H130.96Z" fill="#2B2B2A"/>
</svg>
