<?xml version="1.0" encoding="utf-8"?>
<!-- Generator: Adobe Illustrator 24.1.0, SVG Export Plug-In . SVG Version: 6.00 Build 0)  -->
<svg version="1.1" id="Ebene_1" xmlns="http://www.w3.org/2000/svg" xmlns:xlink="http://www.w3.org/1999/xlink" x="0px" y="0px"
	 viewBox="0 0 504.92 613.27" style="enable-background:new 0 0 504.92 613.27;" xml:space="preserve">
<style type="text/css">
	.st0{fill:#EB906D;}
	.st1{fill:#F6BF97;}
	.st2{fill:#F6BF61;}
	.st3{fill:#263638;}
	.st4{fill:#CC907A;}
	.st5{fill:none;stroke:#263638;stroke-width:2;stroke-linecap:round;stroke-linejoin:round;stroke-miterlimit:10;}
</style>
<path class="st0" d="M337.45,180.91c-0.07-2.17,25.17-14.67,25.17,0s-8.12,49.05-24.58,42.85S337.45,180.91,337.45,180.91z"/>
<path class="st0" d="M152.89,180.18c0.07-2.17-25.17-14.67-25.17,0s8.12,49.05,24.58,42.85
	C168.76,216.84,152.89,180.18,152.89,180.18z"/>
<path class="st0" d="M188.78,312.52c0,0,3.72,65.32-28.21,90c0,0,32.96,62.54,52.5,82.15s30.19,33.07,61.68-3.33
	s75.1-71.99,70.84-77.18c-4.26-5.19-36.94-24.61-35.7-93.79C309.89,310.37,254.05,382.38,188.78,312.52z"/>
<path class="st1" d="M336.31,141.74c-3.52-49.28-55.14-74.72-91.1-74.72c-41.73,0-90.33,26.42-91.1,74.72
	c-1.22,76.14-1.81,208.45,89.32,211.6l0,0.07c0.61,0,1.19-0.03,1.78-0.03c0.6,0.01,1.18,0.03,1.78,0.03l0-0.07
	C337.46,357.13,341.73,217.7,336.31,141.74z"/>
<path class="st2" d="M464.22,497.96l-0.54-0.59c-6.64-7.21-13.59-14.3-20.67-21.07c-0.74-0.71-1.48-1.41-2.22-2.11l0,0
	c-27.8-26.23-59.27-48.89-89.71-70.81l-3.46-2.49c-2.5-1.8-5.93-1.58-8.17,0.54c0,0-78.85,81-86.22,81.38
	c-7.37,0.38-86.22-81.38-86.22-81.38c-2.24-2.11-5.66-2.34-8.16-0.54c-13.11,9.43-26.42,19.25-40.66,30.03
	c-14.6,11.04-30.44,24.4-48.44,40.85c-8.25,7.54-16.31,15.11-23.85,22.22l-0.51,0.48c-6.92,6.51-18.5,17.42-11.18,32.07
	c2.64,5.27,8.61,7.71,12.57,9.32c0.37,0.15,0.73,0.3,1.06,0.44c7.76,3.26,15.72,5.54,23.21,7.6c22.74,6.26,45.6,10.79,66.91,14.76
	c3.96,0.74,7.89,1.44,11.81,2.13c7.08,1.26,14.4,2.56,21.64,4.06c11.99,2.5,24.28,4.46,36.5,5.84c14.83,1.67,29.8,2.5,44.77,2.5
	c9.7,0,19.41-0.35,29.06-1.05c20.12-1.47,40.06-5.06,59.33-8.54c4.06-0.73,8.12-1.46,12.18-2.18c26.5-4.65,47.8-8.99,67.05-13.64
	c10.23-2.47,22.08-5.45,33.31-9.54c0.57-0.21,1.21-0.42,1.89-0.66c5.72-1.96,13.55-4.63,16.76-11.04
	C478.71,513.65,469.99,504.21,464.22,497.96z"/>
<ellipse class="st3" cx="204.13" cy="183.13" rx="6.05" ry="7.55"/>
<ellipse class="st3" cx="292.43" cy="183.13" rx="6.05" ry="7.55"/>
<path class="st3" d="M257.04,247.72c-0.29,0.77-0.58,1.54-0.87,2.31c-5.59,0.39-11,2.5-16.7,1.65c-0.22-0.03-0.35-0.69-0.78-1.63
	c5.16-0.56,10.25-0.8,15.56-2.55c-1.7-13.93-3.4-27.74-5.09-41.55c0.54-0.06,1.07-0.13,1.61-0.19
	C253.95,219.56,254.27,233.84,257.04,247.72z"/>
<ellipse transform="matrix(0.9941 -0.1087 0.1087 0.9941 -22.0395 32.9697)" class="st0" cx="291.27" cy="218.56" rx="21.73" ry="16.84"/>
<ellipse transform="matrix(0.0522 -0.9986 0.9986 0.0522 -25.1311 408.6317)" class="st0" cx="202.72" cy="217.56" rx="16.84" ry="21.73"/>
<path class="st4" d="M246.48,265.1c-3.84-0.22-9.24,0.28-14.68-0.84c-6.08-1.25-9.84-4.99-13.02-9.78
	c-0.55-0.83-1.22-1.87-0.28-2.66c1.36-1.15,2.18,0.29,2.71,1.13c4.74,7.46,12.03,8.77,20.13,9.25c7.95,0.47,15.72,0.54,23.42-1.68
	c4.16-1.2,7.46-3.44,9.53-7.29c0.56-1.05,1.02-2.48,2.41-1.71c1.62,0.89,0.65,2.36-0.02,3.44c-4.05,6.59-10.21,9.63-17.71,10.1
	C255.34,265.29,251.7,265.1,246.48,265.1z"/>
<line class="st5" x1="349.99" y1="188.39" x2="344.59" y2="202.78"/>
<line class="st5" x1="146.93" y1="202.36" x2="140.57" y2="188.37"/>
<path class="st3" d="M191.72,123.23c0,0,34.43,31.3,107.99,0l36.53,51.68c0.87-4.85,2.21-10.95,3.02-17.12
	c1.34-10.17,2.22-20.4,3.52-30.58c0.81-6.36,0.66-13.33,3.32-18.9c13.2-27.68,3.43-53.82-25.24-63.45
	c-7.36-2.47-16.14-4.07-23.53-2.53c-24.45,5.08-48.67,11.4-72.75,18.08c-6.88,1.91-11.89,4.5-14.88-4.77
	c-0.64-1.97-5.67-4.1-8.24-3.65c-18.83,3.29-34.33,19.82-37.69,38.69c-0.87,4.88-2.04,10.45-5.04,14.09
	c-11.32,13.71-14.05,28.87-10.79,45.88c1.58,8.27,2.04,16.76,3.06,25.58C180.76,152.97,191.72,123.23,191.72,123.23z"/>
<path class="st0" d="M247.68,179.19c-4.55,0-14.84,70.53-13.24,72.67c1.61,2.14,25.85,1.77,26.91-0.24S252.23,179.19,247.68,179.19z
	"/>
<g>
	<g>
		<g>
			<path class="st3" d="M228.97,151.32c-20.31-4.24-41.24-4.24-61.55,0.01c-5.41,1.13-10.74,2.59-15.97,4.35
				c-3.71,1.25-6.53,5.22-5.24,9.23c1.19,3.69,5.24,6.58,9.23,5.24c8.44-2.84,17.12-4.86,25.94-6.07c-0.66,0.09-1.33,0.18-1.99,0.27
				c12.48-1.66,25.13-1.68,37.61-0.02c-0.66-0.09-1.33-0.18-1.99-0.27c3.34,0.46,6.67,1.03,9.97,1.72c3.83,0.8,8.29-1.12,9.23-5.24
				C235.07,156.79,233.08,152.18,228.97,151.32L228.97,151.32z"/>
		</g>
	</g>
	<g>
		<g>
			<path class="st3" d="M342.11,153.98c-20.61-5.79-42.49-6.36-63.42-1.98c-5.6,1.17-11.11,2.74-16.49,4.67
				c-1.86,0.67-3.46,1.69-4.48,3.45c-0.94,1.61-1.34,3.98-0.76,5.78c1.17,3.63,5.27,6.66,9.23,5.24c8.22-2.95,16.73-5.02,25.39-6.2
				c-0.66,0.09-1.33,0.18-1.99,0.27c11.05-1.47,22.26-1.49,33.31-0.04c-0.66-0.09-1.33-0.18-1.99-0.27
				c5.82,0.78,11.57,1.97,17.23,3.55c3.77,1.06,8.33-1.3,9.23-5.24C348.26,159.23,346.15,155.12,342.11,153.98L342.11,153.98z"/>
		</g>
	</g>
	<g>
		<g>
			<path class="st3" d="M152.93,169.39c-3.57,11.79-3.98,25.02,0.58,36.62c4.28,10.88,12.72,19.75,23.51,24.34
				c10.93,4.65,23.34,4.25,34.04-0.9c11.05-5.32,18.37-15.58,21.85-27.14c4.53-15.05,2.5-30.92,0.39-46.19
				c-0.18-1.34-1.9-2.07-3.08-1.75c-1.44,0.4-1.93,1.73-1.75,3.08c1.76,12.76,3.51,26.01,0.82,38.77
				c-2.25,10.66-7.57,20.9-17.01,26.84c-8.82,5.54-19.83,7.08-29.79,4.01c-9.84-3.04-18.19-10.23-22.82-19.4
				c-5.74-11.38-5.56-24.96-1.93-36.94C158.68,167.63,153.86,166.31,152.93,169.39L152.93,169.39z"/>
		</g>
	</g>
	<g>
		<g>
			<path class="st3" d="M262.44,163.77c-1.86,12.63-3.69,25.79-0.51,38.37c2.91,11.51,10.57,21.3,21.24,26.6
				c10.6,5.26,22.73,5.5,33.59,0.85c11.31-4.85,19.35-14.5,23.05-26.13c4.83-15.18,2.34-31.26-0.11-46.63
				c-0.21-1.33-1.88-2.08-3.08-1.75c-1.42,0.39-1.96,1.74-1.75,3.08c2.05,12.83,4.18,26.16,1.41,39.06
				c-1.22,5.65-3.32,11.07-6.63,15.84c-2.93,4.2-6.89,7.65-11.33,10.19c-9.11,5.2-20,6.16-29.82,2.43
				c-9.6-3.65-17.32-11.56-20.69-21.25c-4.39-12.61-2.46-26.42-0.57-39.32c0.2-1.33-0.33-2.69-1.75-3.08
				C264.33,161.7,262.63,162.43,262.44,163.77L262.44,163.77z"/>
		</g>
	</g>
	<g>
		<g>
			<path class="st3" d="M233.08,174.6c4.67-3.41,10.42-5.09,16.2-4.39c5.39,0.65,10.35,3.4,13.97,7.41
				c2.16,2.39,5.69-1.15,3.54-3.54c-9.2-10.19-25.11-11.92-36.22-3.8c-1.09,0.8-1.63,2.17-0.9,3.42
				C230.29,174.78,231.98,175.4,233.08,174.6L233.08,174.6z"/>
		</g>
	</g>
</g>
</svg>
