<?xml version="1.0" encoding="utf-8"?>
<!-- Generator: Adobe Illustrator 24.1.0, SVG Export Plug-In . SVG Version: 6.00 Build 0)  -->
<svg version="1.1" id="Ebene_1" xmlns="http://www.w3.org/2000/svg" xmlns:xlink="http://www.w3.org/1999/xlink" x="0px" y="0px"
	 viewBox="0 0 504.92 613.27" style="enable-background:new 0 0 504.92 613.27;" xml:space="preserve">
<style type="text/css">
	.st0{fill:#FFFFFF;}
	.st1{clip-path:url(#SVGID_2_);fill:#FFFFFF;}
	.st2{clip-path:url(#SVGID_4_);fill:#FFFFFF;}
	.st3{clip-path:url(#SVGID_6_);fill:#FFFFFF;}
	.st4{clip-path:url(#SVGID_8_);fill:#FFFFFF;}
	.st5{clip-path:url(#SVGID_10_);fill:#FFFFFF;}
	.st6{clip-path:url(#SVGID_12_);fill:#FFFFFF;}
	.st7{clip-path:url(#SVGID_14_);fill:#F6BF61;}
	.st8{clip-path:url(#SVGID_16_);fill:url(#SVGID_17_);}
	.st9{clip-path:url(#SVGID_19_);fill:url(#SVGID_20_);}
	.st10{clip-path:url(#SVGID_22_);fill:url(#SVGID_23_);}
	.st11{clip-path:url(#SVGID_25_);fill:url(#SVGID_26_);}
	.st12{clip-path:url(#SVGID_28_);fill:url(#SVGID_29_);}
	.st13{clip-path:url(#SVGID_31_);fill:url(#SVGID_32_);}
</style>
<g>
	<defs>
		<rect id="SVGID_13_" x="61.56" y="57.23" width="375.54" height="496.16"/>
	</defs>
	<clipPath id="SVGID_2_">
		<use xlink:href="#SVGID_13_"  style="overflow:visible;"/>
	</clipPath>
	<path style="clip-path:url(#SVGID_2_);fill:#F6BF61;" d="M148.82,550.61c-5.83,0-11.35,0.28-16.82-0.08
		c-5.26-0.35-7.99-2.9-8.36-8.12c-0.52-7.33-0.39-14.71-0.5-22.07c-0.05-3.29-0.01-6.59-0.01-10.12H87.54v40.25
		c-6.34,0-12.33,0.42-18.24-0.13c-4.94-0.46-7.29-3.81-7.62-9.35c-0.2-3.43-0.1-6.87-0.1-10.31c-0.01-25.54,0-51.08,0-76.63v-4.43
		c6.78-1.12,13.36-2.42,20.04-0.17c4.69,1.58,5.7,5.47,5.76,9.69c0.14,8.6,0.06,17.19,0.07,25.79c0,1.33,0,2.67,0,4.28h35.66v-3.81
		c0-10.81,0.11-21.61-0.07-32.42c-0.05-2.93,0.99-4.03,3.72-4.04c4.77-0.02,9.6-0.5,14.3,0.05c5.08,0.59,7.34,3.62,7.79,8.78
		c0.14,1.59,0.18,3.19,0.18,4.79c0.01,27.87,0.01,55.75,0,83.62C149.05,547.25,148.94,548.34,148.82,550.61"/>
	<path style="clip-path:url(#SVGID_2_);fill:#F6BF61;" d="M192.57,509.24c0.49,4.06,0.09,7.12,0.74,10.22
		c1.7,8.13,6.94,12.65,14.69,13.01c7.92,0.36,13.25-3.45,15.66-11.68c2.23-7.59,2.21-15.27-0.54-22.75
		c-2.51-6.83-7.6-10.24-14.62-10.18c-6.78,0.06-11.46,3.71-14.18,10.23C192.79,501.75,192.53,505.76,192.57,509.24 M166.46,510.28
		c-0.05-18.99,8.95-33.18,24.9-39.23c17.5-6.64,38.17-2.53,49.4,10.19c9.16,10.37,11.35,22.8,9.6,36.15
		c-2.19,16.72-11.03,28.5-27.46,32.86c-17.33,4.59-33.92,2.8-46.89-11.31C168.65,530.94,166.43,520.9,166.46,510.28"/>
	<path style="clip-path:url(#SVGID_2_);fill:#F6BF61;" d="M335.33,553.4c-7.04-1.51-14.31-2.39-21.07-4.71
		c-8.36-2.86-11.58-10.35-8.53-17.23c2.09-4.71,3.64-5.26,8.26-3.02c8.39,4.06,17.2,5.86,26.49,4.47c5.06-0.76,7.72-4.44,5.78-8.11
		c-0.86-1.63-2.85-3.13-4.64-3.72c-4.66-1.52-9.51-2.45-14.26-3.71c-6.47-1.72-12.78-3.88-17.49-8.92
		c-9.08-9.72-7.07-26.84,4.33-33.84c14.48-8.88,29.99-8.77,45.4-2.97c8.6,3.24,10.81,11.61,5.96,18.26
		c-1.34,1.83-2.49,2.33-4.83,1.32c-6.95-3.01-14.27-4.55-21.91-4.12c-0.49,0.03-0.99,0.05-1.48,0.1c-4.88,0.48-7.88,2.52-8.12,5.53
		c-0.25,3.13,1.68,4.76,6.9,6.33c7.74,2.33,15.7,4.21,23.07,7.39c9.05,3.9,12.85,11.61,12.44,21.44
		c-0.45,10.53-5.82,17.76-15.5,21.1C349.59,551.23,342.53,551.93,335.33,553.4"/>
	<path style="clip-path:url(#SVGID_2_);fill:#F6BF61;" d="M433.38,531.11c6.01,7.93,3.34,17.31-6.29,19.76
		c-10.14,2.58-20.29,2.26-29.7-3.11c-7.4-4.22-10.16-11.28-10.29-19.22c-0.3-18.3-0.17-36.6-0.2-54.91
		c-0.01-6.51,0.1-13.02-0.05-19.53c-0.05-2.26,0.63-3.56,2.91-3.65c4.65-0.18,9.36-0.77,13.93-0.22c5.32,0.64,7.32,3.36,7.81,8.69
		c0.2,2.2,0.22,4.41,0.27,6.62c0.04,2.06,0.01,4.12,0.01,6.63c6.69,0,12.96,0.19,19.2-0.08c3.08-0.13,4.59,0.97,5.13,3.81
		c0.34,1.8,0.89,3.6,0.98,5.41c0.32,6.66-2.93,10.11-9.62,10.25c-5.03,0.1-10.07,0.02-15.34,0.02c-0.14,1.16-0.34,2.09-0.34,3.01
		c-0.02,9.21-0.07,18.43,0,27.64c0.06,7.03,2.73,9.84,9.87,9.94C425.42,532.23,429.19,531.52,433.38,531.11"/>
	<path style="clip-path:url(#SVGID_2_);fill:#F6BF61;" d="M278.76,550.45c-3.1,0-6.04,0.23-8.92-0.07c-2.41-0.25-3.5-1.71-3.6-4.18
		c-0.13-3.12-0.1-6.26-0.11-9.39c-0.01-4.97,0.22-9.95-0.07-14.91c-0.28-4.95,1.87-8.04,6.26-9.91c5.08-2.17,10.35-3.11,15.84-2.34
		c4.81,0.68,6.71,4.08,4.95,8.55c-0.42,1.06-0.91,1.47-2.18,1.26c-3.52-0.6-6.97-0.1-10.34,1.07c-1.31,0.46-1.89,1.11-1.87,2.64
		c0.09,8.35,0.05,16.7,0.05,25.04V550.45z"/>
</g>
<g>
	<defs>
		<path id="SVGID_15_" d="M234.41,432.59c-5.41-0.16-9.23-2.68-11.07-7.75c-2.43-6.7-2.47-13.49,0.01-20.19
			c1.87-5.04,5.85-7.74,11.04-7.83c5.51-0.1,9.63,2.27,11.56,7.43c1.25,3.34,1.97,6.83,1.97,10.7c0,3.72-0.72,7.01-1.92,10.27
			c-1.83,4.95-5.86,7.38-11.09,7.38C234.75,432.59,234.58,432.59,234.41,432.59 M211.51,389c-11.55,9.61-14.25,30-6.31,44
			c6.43,11.33,16.98,15.17,26.13,15.38c18.63,0.08,30.3-6.92,34.73-19.75c1.66-4.81,2.37-10.19,2.32-15.3
			c-0.11-13.38-5.68-24.06-18.47-29.32c-5.41-2.22-10.79-3.41-16.05-3.4C226,380.61,218.43,383.25,211.51,389"/>
	</defs>
	<clipPath id="SVGID_4_">
		<use xlink:href="#SVGID_15_"  style="overflow:visible;"/>
	</clipPath>
	
		<linearGradient id="SVGID_6_" gradientUnits="userSpaceOnUse" x1="-2481.3604" y1="1858.3147" x2="-2478.1243" y2="1858.3147" gradientTransform="matrix(0.9048 129.6038 129.6038 -0.9048 -238369.25 323304.4375)">
		<stop  offset="0" style="stop-color:#F7DAAA"/>
		<stop  offset="1" style="stop-color:#F6BF61"/>
	</linearGradient>
	<polygon style="clip-path:url(#SVGID_4_);fill:url(#SVGID_6_);" points="268.42,380.1 268.9,448.46 197.26,448.96 196.79,380.61 	
		"/>
</g>
<g>
	<defs>
		<path id="SVGID_18_" d="M329.61,427.25c-1.52-0.42-2.41-1.47-2.48-3.12c-0.07-1.64,0.77-2.7,2.28-3c2.79-0.55,5.61-0.92,8.67-1.4
			c0,2.29,0.05,4.14-0.04,5.98c-0.02,0.4-0.41,1.02-0.78,1.15c-1.48,0.53-2.98,0.82-4.5,0.82
			C331.72,427.68,330.66,427.54,329.61,427.25 M321.46,401.09c-1.68,0.58-2.59,2.01-2.74,3.79c-0.13,1.61,0.27,3.21,1.6,4.1
			c0.59,0.39,1.85-0.04,2.74-0.3c3.77-1.14,7.57-1.76,11.46-0.83c2.56,0.61,3.51,2.01,3.38,4.72c-0.74,0.1-1.52,0.24-2.3,0.33
			c-3.01,0.34-6.04,0.56-9.02,1.04c-3.47,0.56-6.79,1.6-8.69,4.92c-3.41,5.95-0.64,13.11,5.86,15.42c4.37,1.56,8.89,1.71,13.37,1.08
			c2.73-0.38,5.43-1.37,8.01-2.42c2.05-0.83,3.47-2.47,3.47-4.9c0.01-5.73,0.11-11.46-0.06-17.18c-0.13-4.08-1.98-7.45-5.72-9.28
			c-3.5-1.72-7.05-2.45-10.62-2.45C328.63,399.12,325.04,399.86,321.46,401.09"/>
	</defs>
	<clipPath id="SVGID_8_">
		<use xlink:href="#SVGID_18_"  style="overflow:visible;"/>
	</clipPath>
	
		<linearGradient id="SVGID_10_" gradientUnits="userSpaceOnUse" x1="-2481.3604" y1="1859.0764" x2="-2478.1243" y2="1859.0764" gradientTransform="matrix(0.9048 129.6038 129.6038 -0.9048 -238369.25 323304.4375)">
		<stop  offset="0" style="stop-color:#F7DAAA"/>
		<stop  offset="1" style="stop-color:#F6BF61"/>
	</linearGradient>
	<polygon style="clip-path:url(#SVGID_8_);fill:url(#SVGID_10_);" points="348.72,398.88 348.97,435.98 314.47,436.22 
		314.21,399.12 	"/>
</g>
<g>
	<defs>
		<path id="SVGID_21_" d="M157.76,391.27v4.84c0,10.83-0.02,21.65,0.01,32.47c0.01,3.93,1.96,6.01,5.81,6.06
			c6.65,0.08,13.3,0.05,19.95,0c2.04-0.01,3.46-1.18,3.58-3.12c0.09-1.54-0.26-3.12-0.49-4.68c-0.14-0.93-0.75-1.21-1.71-1.19
			c-4.74,0.05-9.48,0.02-14.21,0.02h-1.76v-1.98c0-8.92,0.01-17.83-0.01-26.74c0-1-0.12-2.01-0.26-3c-0.2-1.53-1.15-2.48-2.6-2.89
			c-1.06-0.29-2.11-0.41-3.16-0.41C161.22,390.65,159.52,390.95,157.76,391.27"/>
	</defs>
	<clipPath id="SVGID_12_">
		<use xlink:href="#SVGID_21_"  style="overflow:visible;"/>
	</clipPath>
	
		<linearGradient id="SVGID_14_" gradientUnits="userSpaceOnUse" x1="-2481.3604" y1="1857.849" x2="-2478.1243" y2="1857.849" gradientTransform="matrix(0.9048 129.6038 129.6038 -0.9048 -238369.25 323304.4375)">
		<stop  offset="0" style="stop-color:#F7DAAA"/>
		<stop  offset="1" style="stop-color:#F6BF61"/>
	</linearGradient>
	<polygon style="clip-path:url(#SVGID_12_);fill:url(#SVGID_14_);" points="187.2,390.45 187.51,434.71 157.74,434.92 
		157.43,390.66 	"/>
</g>
<g>
	<defs>
		<path id="SVGID_24_" d="M287.03,404.24c-4.83,4.44-5.7,10.32-4.94,16.54c0.73,5.96,3.62,10.45,9.2,12.98
			c2.99,1.36,6.19,1.86,8.89,1.81c3.64,0,6.67-0.22,9.29-2.03c2.68-1.85,2.96-5.08,0.76-7.43c-0.66-0.71-1.24-0.77-2.22-0.48
			c-2.06,0.61-4.2,1.2-6.32,1.26c-3.96,0.11-7.07-2.12-8.19-5.4c-1.48-4.32-0.34-9.36,2.71-11.66c3.68-2.77,7.64-2.51,11.61-0.77
			c1.19,0.52,1.88,0.36,2.42-0.73c0.26-0.52,0.57-1.03,0.73-1.58c0.81-2.67-0.77-5.47-4.17-6.51c-2.39-0.72-4.74-1.11-7.01-1.11
			C295.17,399.15,290.84,400.74,287.03,404.24"/>
	</defs>
	<clipPath id="SVGID_16_">
		<use xlink:href="#SVGID_24_"  style="overflow:visible;"/>
	</clipPath>
	
		<linearGradient id="SVGID_17_" gradientUnits="userSpaceOnUse" x1="-2481.3604" y1="1858.8086" x2="-2478.1243" y2="1858.8086" gradientTransform="matrix(0.9048 129.6038 129.6038 -0.9048 -238369.25 323304.4375)">
		<stop  offset="0" style="stop-color:#F7DAAA"/>
		<stop  offset="1" style="stop-color:#F6BF61"/>
	</linearGradient>
	<polygon class="st8" points="312.43,398.93 312.69,435.63 281.33,435.85 281.08,399.15 	"/>
</g>
<g>
	<defs>
		<path id="SVGID_27_" d="M357.03,388.17c-0.02,0.42-0.06,0.73-0.06,1.05c0,13.48-0.01,26.96,0.01,40.44c0,0.68,0.12,1.37,0.2,2.05
			c0.22,1.68,1.23,2.68,2.85,3.01c2.58,0.53,5.15,0.41,7.76-0.25c0.03-0.55,0.08-1.02,0.08-1.49c0-13.21,0-26.42,0-39.64
			c0-0.69-0.01-1.38-0.09-2.07c-0.2-1.84-1.1-2.94-2.87-3.39c-1-0.26-1.99-0.36-2.99-0.36C360.3,387.51,358.67,387.8,357.03,388.17"
			/>
	</defs>
	<clipPath id="SVGID_19_">
		<use xlink:href="#SVGID_27_"  style="overflow:visible;"/>
	</clipPath>
	
		<linearGradient id="SVGID_20_" gradientUnits="userSpaceOnUse" x1="-2481.3604" y1="1859.3146" x2="-2478.1243" y2="1859.3146" gradientTransform="matrix(0.9048 129.6038 129.6038 -0.9048 -238369.25 323304.4375)">
		<stop  offset="0" style="stop-color:#F7DAAA"/>
		<stop  offset="1" style="stop-color:#F6BF61"/>
	</linearGradient>
	<polygon class="st9" points="367.87,387.44 368.2,435.24 356.97,435.32 356.63,387.52 	"/>
</g>
<g>
	<defs>
		<path id="SVGID_30_" d="M245.09,81.22c6.35-0.37,12.72-0.17,19.06,0.58c8.67,1.3,17.16,3.62,25.29,6.91
			c7.39,3.27,14.4,7.33,20.89,12.16c6.21,4.96,11.83,10.62,16.79,16.84c5.08,6.79,9.36,14.14,12.78,21.9
			c3.19,7.9,5.46,16.13,6.73,24.56c0.82,7.1,0.88,14.22,0.08,21.33c-1.32,8.62-3.78,17-7.04,25.08
			c-5.8,13.37-13.6,25.77-22.41,37.36c-21.01,26.82-47.43,48.57-71.12,72.88c-0.09,0.09-0.17,0.18-0.26,0.27
			c-0.13-14.84-0.19-29.67-0.2-44.51c0-4.11-0.1-8.26,0.28-12.37c0.12-0.62,0.26-1.24,0.44-1.85c0.19-0.19,0.39-0.37,0.59-0.55
			c3.47-2.34,7.37-4.07,11.05-5.99c6.36-3.32,12.4-7.29,18.11-11.64c6.41-4.88,12.64-10.01,18.04-16.01
			c2.64-2.94,5.14-6.06,7.33-9.35c2.38-3.56,4.1-7.45,5.68-11.42c2.84-7.15,4.13-15.09,4.23-22.76c0.1-7.61-1.04-15.57-3.79-22.69
			c-3.03-7.83-7.34-15.06-13.76-20.62c-6.3-5.46-13.74-9.67-21.9-11.61c-8.63-2.05-18.26-1.92-26.91,0.06V81.22z M251.06,57.24
			c-2.72,0.01-5.43,0.13-8.14,0.34c-4.11,0.33-8.21,0.88-12.28,1.56c-2.77,0.47-5.75,3.14-7.1,5.46c-1.49,2.55-2.12,6.3-1.2,9.16
			c0.05,0.16,0.11,0.31,0.17,0.47v70.76c-0.06,0.17-0.12,0.34-0.17,0.51c-0.79,2.84-0.43,6.63,1.2,9.16
			c1.64,2.54,4.07,4.77,7.1,5.46c3.04,0.69,6.46,0.55,9.16-1.2c2.86-1.85,5.69-3.84,8.75-5.36c1.51-0.53,3.06-0.91,4.64-1.18
			c3.36-0.35,6.78-0.46,10.14-0.18c2.42,0.42,4.78,1.07,7.08,1.93c2.17,1.03,4.23,2.23,6.19,3.62c1.7,1.43,3.27,2.99,4.71,4.69
			c1.31,1.87,2.45,3.84,3.42,5.91c1.19,3.12,2.05,6.35,2.61,9.64c0.41,3.98,0.4,7.99-0.01,11.97c-0.61,3.63-1.55,7.18-2.87,10.62
			c-1.34,2.86-2.94,5.57-4.8,8.12c-4.62,5.65-10.05,10.62-15.76,15.15c-4.16,3.14-8.46,6.08-12.95,8.73c-4,2.36-8.2,4.34-12.27,6.56
			c-3.31,1.81-6.71,3.9-9.33,6.65c-2.98,3.14-5.16,7.03-6.13,11.26c-1.71,7.44-1.3,15.26-1.3,22.84c0.01,9,0.04,18.01,0.09,27.01
			c0.08,14.53,0.23,29.05,0.45,43.57c0.02,1.39,0.3,2.79,0.79,4.11c0.55,2.01,1.59,3.95,3.02,5.27c2.26,2.08,5.24,3.62,8.4,3.48
			c2.95-0.13,6.46-1.08,8.4-3.48c18.12-22.45,39.93-41.44,60.45-61.59c20.09-19.73,39.29-41.27,52.31-66.45
			c6.56-12.68,11.84-26.35,13.9-40.54c1.07-7.42,1.67-14.78,1.14-22.28c-0.51-7.17-1.59-14.36-3.35-21.33
			c-3.26-12.99-8.83-25.66-16.25-36.82c-7.99-12.03-17.82-22.27-29.41-30.84c-11.16-8.26-24.11-14.33-37.45-18.12
			c-10.39-2.96-21.34-4.57-32.21-4.63H251.06z"/>
	</defs>
	<clipPath id="SVGID_22_">
		<use xlink:href="#SVGID_30_"  style="overflow:visible;"/>
	</clipPath>
	
		<linearGradient id="SVGID_23_" gradientUnits="userSpaceOnUse" x1="-2481.3604" y1="1858.816" x2="-2478.1243" y2="1858.816" gradientTransform="matrix(0.9048 129.6038 129.6038 -0.9048 -238369.25 323304.4375)">
		<stop  offset="0" style="stop-color:#F7DAAA"/>
		<stop  offset="1" style="stop-color:#F6BF61"/>
	</linearGradient>
	<polygon class="st10" points="371.39,56.19 373.53,363.43 221.42,364.5 219.27,57.25 	"/>
</g>
</svg>
