<svg id="Ebene_1" data-name="Ebene 1" xmlns="http://www.w3.org/2000/svg" viewBox="0 0 1167.34 1279.77"><defs><style>.cls-1{fill:#29235c;}.cls-2{fill:#7f2f37;}.cls-3{fill:#c73e80;}.cls-4{fill:#ac2e2f;}.cls-5{fill:#e99c84;}.cls-6{fill:#d34027;}</style></defs><ellipse class="cls-1" cx="593.31" cy="424.34" rx="193.44" ry="39.95"/><ellipse class="cls-2" cx="582.87" cy="612.72" rx="118.86" ry="163.77"/><path class="cls-3" d="M1100.67,1168.87c-1.58,3.77-3.33,7.79,1.2,10.61,5.58,3.48,8.19,9.22,11.25,14.42,21.21,36.08,40.9,72.93,54.22,112.82H0C2.92,1292.35,12.59,1281,16,1266c2.93-13,10.05-27.83,21.4-38.25A21.28,21.28,0,0,0,44,1214.39c.79-10.29,6.74-18.47,12.1-25.44,13.75-17.88,20.81-41.07,41.6-53.54,2.42-1.45,3.63-5.3,4.88-8.26a32,32,0,0,1,12.64-14.55c12.89-8.35,12.73-24.34,20.88-35.45a1.49,1.49,0,0,0,.8-1c13.05.74,14.42-10.73,19.35-18.48l.52-.28c2.76,1.06,6.45,2.43,7.89-.59,4.18-8.74,13.12-12.35,18.93-18.94,4.84-5.49,12.94-8.69,14.15-17.19l.64-.6c10,6,14.7,1.65,16.57-8.36.26-1.39.47-2.79.71-4.19l6.73-4.51c3.07.19,5.47-.63,6.06-4.12l.46-.42c4.41-.2,9.32.41,9.72-6.13,13.12-6.94,22.87-17.38,31.92-29,10.67-13.71,23.09-25.91,35.59-38.06,18.06-17.54,39.3-30.91,58.48-46.92l4-2.17c-6.33,36.83-2.77,74-2.78,110.93,0,45.38,10.13,87.86,36.15,126.46,47,69.72,113.47,98.74,195.33,95.51,26.43-1,52.2-7.56,75.88-21,19.81-11.29,41-20.65,57.1-37.13,23.86-24.5,43.72-51.33,54.46-85.09,6.69-21,12.31-41.81,13-63.49,1.06-33.75.18-67.56.34-101.34,0-6.81-2.54-13.72.54-20.45,12.88,3.6,20.8,14.71,31.89,21,3.08,5.24,7.91,8.33,13.29,10.72C855.51,923.57,867,935,878.78,946.14c13.34,12.59,21.68,29.84,37.49,40.09,4.77,10.65,13,15.88,24.67,15.86a3.54,3.54,0,0,0,1.76,1.24c2,6.73,5.57,11.4,13.55,10.21l3.76,2.76c1.14,5,3.77,8.21,9.39,7.89a2.48,2.48,0,0,0,1.48,1c1.24,4.84,3.45,8.37,9.35,7a3.39,3.39,0,0,0,1.31,1.32c-3.71,13.09,6.53,17.64,14.6,23.1,10,6.78,19.47,14.38,26.68,23.88,4.13,5.44,7.67,8,14.13,6.35a3.05,3.05,0,0,0,1.16,1.23c-1.9,18.34,13.17,21.88,24.79,28.43l1,2c-2,11.22,5.91,17.16,12.82,23.46,3.19,2.91,7,5,8,9.82,1.67,8.65,8.24,13,15.51,16.58Z" transform="translate(0 -26.95)"/><path class="cls-4" d="M901.08,29.63C907.87,25,915.64,28.48,922.8,27l7.81,3.77c-.79.72-1.58,1.43-2.37,2.16Z" transform="translate(0 -26.95)"/><path class="cls-5" d="M798.52,879.56l.19,1c-3.08,6.73-.51,13.64-.54,20.45-.16,33.78.72,67.59-.34,101.34-.68,21.68-6.3,42.48-13,63.49-10.74,33.76-30.6,60.59-54.46,85.09-16.07,16.48-37.29,25.84-57.1,37.13-23.68,13.48-49.45,20-75.88,21-81.86,3.23-148.32-25.79-195.33-95.51-26-38.6-36.16-81.08-36.15-126.46,0-37-3.55-74.1,2.76-110.91,5.5,3.2,3.67,9.33,5.38,14,29.73,81.23,85.79,133.57,171.55,148.08,87.63,14.83,158.81-17.2,212.9-87,17.46-22.53,28.32-48.72,36.35-76Z" transform="translate(0 -26.95)"/><path class="cls-4" d="M794.86,875.23c-8,27.31-18.89,53.5-36.35,76-54.09,69.79-125.27,101.82-212.9,87-85.76-14.51-141.82-66.85-171.55-148.08-1.71-4.67.12-10.8-5.38-14-1.33.7-2.68,1.43-4,2.15,2.83-60.94,1.36-121.89.88-182.83-.3-38.46-.86-76.91-1.24-115.37-.05-5-.51-10.19,1.5-15.06l3.2.6c-.11,4.36-.37,8.72-.29,13.08.93,51.18,3.83,102.32,2.67,153.55-.19,8.31-.73,17.78,4.15,24.35,7,9.35,6.74,18.53,5,28.85-1.57,9.24-.81,19.12,5.78,25.75,11.51,11.6,14.12,25.69,15.33,40.76.75,9.37,1.12,18.63,10.42,25,4.29,2.92,5.09,9.29,7.39,14.13,3.72,7.84,2.07,18.84,11.35,23.41,12,5.92,18.66,17.43,28.34,25.77,4.34,3.74,4.93,12.4,13.79,5.67,2.58-2,6.21,1.55,8.27,4,11.89,13.91,25.79,11.84,40.53,5.78,4-1.63,10-4.36,12.31-2.7,7.63,5.54,16.63,2.89,24,5.69,10.49,4,20.83,2,29-1.42,10.09-4.24,10.53.69,12.2,6.91.62,2.32-.34,6,3.66,5.09,10.79-2.41,23-1.64,31.61-9.56s17.52-7.55,27.21-4.32c3.78,1.26,7.76,2.18,10-1.25,7.65-11.88,21.69-10.12,32.46-14.76,7.76-3.35,10.59-6,11-13.79.42-8.38,2.91-15.37,14.27-11.52,6.77,2.31,10.72-1.68,10.91-8.17.14-5,1.44-8.84,6.09-10.38,10.33-3.4,7.45-16.76,16.35-21.23.7-.35.2-3.45-.07-5.22a8.65,8.65,0,0,1,2.64-7.87c8.39-8.58,8.61-19.41,8.56-30.48,0-10.49.51-21,1-31.49.11-2.52.59-5.4,3.71-6,2.23-.4,3,1.52,3.4,3.39.56,2.51,1.18,5.74,4.56,4.46,3.12-1.17,1.92-4.64,1-6.72-3.69-8.39.75-15.71,3.08-23.07,1.59-5,3.3-10.46,1.69-14.84-4.85-13.22-2.11-26.18-1.16-39.43,1.42-19.87,2.48-39.86,1.92-59.74-.18-6.44-.22-11.14,4.67-15.26,2.06,4.08,1.61,8.52,1.48,12.82-1.54,50.35,1,100.73-1.36,151.09-.83,18,.53,36.19.88,54.29C794.37,864.44,795.18,870,794.86,875.23Z" transform="translate(0 -26.95)"/><path class="cls-6" d="M797.77,642.05c-4.89,4.12-4.85,8.82-4.67,15.26.56,19.88-.5,39.87-1.92,59.74-.95,13.25-3.69,26.21,1.16,39.43,1.61,4.38-.1,9.82-1.69,14.84-2.33,7.36-6.77,14.68-3.08,23.07.91,2.08,2.11,5.55-1,6.72-3.38,1.28-4-2-4.56-4.46-.42-1.87-1.17-3.79-3.4-3.39-3.12.56-3.6,3.44-3.71,6-.46,10.49-1,21-1,31.49.05,11.07-.17,21.9-8.56,30.48a8.65,8.65,0,0,0-2.64,7.87c.27,1.77.77,4.87.07,5.22-8.9,4.47-6,17.83-16.35,21.23-4.65,1.54-6,5.38-6.09,10.38-.19,6.49-4.14,10.48-10.91,8.17-11.36-3.85-13.85,3.14-14.27,11.52-.39,7.84-3.22,10.44-11,13.79-10.77,4.64-24.81,2.88-32.46,14.76-2.21,3.43-6.19,2.51-10,1.25-9.69-3.23-18.58-3.63-27.21,4.32s-20.82,7.15-31.61,9.56c-4,.89-3-2.77-3.66-5.09-1.67-6.22-2.11-11.15-12.2-6.91-8.21,3.44-18.55,5.41-29,1.42-7.38-2.8-16.38-.15-24-5.69-2.28-1.66-8.35,1.07-12.31,2.7-14.74,6.06-28.64,8.13-40.53-5.78-2.06-2.42-5.69-5.93-8.27-4-8.86,6.73-9.45-1.93-13.79-5.67-9.68-8.34-16.32-19.85-28.34-25.77-9.28-4.57-7.63-15.57-11.35-23.41-2.3-4.84-3.1-11.21-7.39-14.13-9.3-6.33-9.67-15.59-10.42-25-1.21-15.07-3.82-29.16-15.33-40.76-6.59-6.63-7.35-16.51-5.78-25.75,1.75-10.32,2-19.5-5-28.85-4.88-6.57-4.34-16-4.15-24.35,1.16-51.23-1.74-102.37-2.67-153.55-.08-4.36.18-8.72.29-13.08,2.42-10.23,5.1-20.35,11.61-28.93,18.85-24.8,42-40.69,74.93-40.37,15.1.14,30.45.66,45.43-.81,20.82-2,21.24.42,26.92,19-3.39,1-7,2.76-5.45,6.64,3.66,9.32,7.58,18.61,14.61,26.13,9.45,10.11,20.83,12.2,34.64,13.27,23.77,1.83,42-5.69,56.79-23,3.88-4.54,11.26-6.42,11.65-13.55s3-13.42,6.29-19.44c2.33-4.33,2.49-6.76-3.1-7.24,1.75-4,5.41-3,8.48-2.92,21.7.48,43.47.14,65.07,1.89,35.68,2.9,60,22.35,74.26,54.84,2,4.55,2.5,10,7.24,13,.18,16.19.42,32.38.51,48.56,0,4-.43,7.95-.66,11.92-2.23,2.45-2.26,5-.38,7.66ZM636.83,577.17c-20-4.61-40.19-7.3-60.77-4.22a22.24,22.24,0,0,1-6.41-.17c-10.63-1.54-20.72.53-30.59,4.26l-4.39.1c-1.11-4.35-.09-9.57-5.08-12.47-5.89,10-16.9,8.52-25.68,11.9-5,1.8-7.42,5.09-7.21,10.62.4,10.39.45,20.8.64,31.21-3.59,27.16-.61,54.16,2.42,81.11a44.57,44.57,0,0,0,6,17.42c26.57,45.29,93,60.33,132.84,25.1,12.82-11.33,22.53-25.44,31.24-40,2.89-4.83,4.52-11,3-16.85-6.44-24-3.45-48.1-1.93-72.28.68-10.88,4.15-22.48-4.18-32.34-.65-1.33-1.29-2.67-1.94-4-3-5.2-5.58-3.16-8.12.41l-4.63.27h-5.69Z" transform="translate(0 -26.95)"/><path class="cls-6" d="M443.74,84c.61-1.12,1.21-2.25,1.81-3.37,8.59-2.7,12.2-11.39,19.21-16,4.12.23,6.62-2.8,9.34-5,13.81-11.18,29.75-17.88,46.52-23.1,5.46-1.7,11.55-2,16.11-6.13,34.85-2.79,69.74-1.05,104.61-1.08a47.68,47.68,0,0,0,24.45,0h5.91c17.66,3.15,35.48,1.12,53.23,1.29,15.19.15,30.48,1.7,45.61-1.28h60.55a18.62,18.62,0,0,0,13.64,0l12.56,0a73.27,73.27,0,0,0,30.75.14l13,.25,27.17,3.31a10.58,10.58,0,0,1,.4,7.45c-.27.2-.8.47-.77.61a12.66,12.66,0,0,0,.7,1.72c-.06,2.34-.12,4.68-.18,7C922.22,64,923,79.55,921.77,94.46c-.79,9.61-2.66,12.46-12.51,9.37,7.06,9.87,7.09,10-2.88,12-7.08,1.4-9.91,4.16-7.53,12,1.62,5.37.18,12-8.14,8.88-3.85-1.45-6.72-.84-8.86,1.26-3.14,3.1-.12,6.3,2,8.43,5.44,5.55,3.27,14-.45,15.14-15.42,4.77-8.57,24.46-21.69,29.89-.19.08-.31.72-.22,1,3.66,12.07-8.27,12.8-13.63,15.91-12.71,7.39-25.17,15.92-40.08,19.14a18.09,18.09,0,0,0-9.2,5.45c-8.47,9-21.4,12.16-31.69,13.92-14.1,2.42-26.23,8.35-39.38,12.18-11.59,3.39-24.84,7.44-36.11,3.16-11.46-4.35-22.56-5-33.84-4.25-35.82,2.48-71.55-.57-107.32-.65-6.16,0-13.84.26-17.48-6.47-3.15-5.82-6.31-5.09-10.2-1.62-3.58,3.2-6.83,5.27-11.24,1.11-7.69-7.25-14.67-15.39-26.5-16.55-4.27-.42-7.14-4.78-8.87-9-2.7-6.54-6.84-10.51-14.51-11.2-6.59-.58-9.59-4.6-3.67-10,5.6-5.11,1.3-6.35-2.38-8.19-8.85-4.41-16.67-9.27-13.84-21.45.63-2.72-1-5.73-4.07-5.61-6,4.95,3.76,19.3-12,17.17l0,0c-.85-5.71,9.86-13.35-1.88-17-8.09-2.49-7.16-6.08-5.81-12.76,3.94-19.48,10.41-38.09,17.09-56.68A7.56,7.56,0,0,0,440,92.36Q441.87,88.16,443.74,84Z" transform="translate(0 -26.95)"/><path class="cls-5" d="M527.89,514.55c-5.68-18.58-6.1-21-26.92-19-15,1.47-30.33.95-45.43.81-33-.32-56.08,15.57-74.93,40.37-6.51,8.58-9.19,18.7-11.61,28.93l-3.2-.6c-1.85-18.06-.61-36.17-.64-54.25,0-6.7-1.25-10.26-9.09-11.43-20.31-3-32.26-16.5-32.27-34.58,0-20.68,10.47-33.44,31.6-37.48,6.88-1.31,9.89-4,9.64-11.39-.48-13.74,0-27.5-.08-41.26,0-4.08-.06-8,3-11.14,23.75-.92,39.4-14,50.66-33.72,10.76-18.8,7.17-39.54,8-59.67.37-8.78-1.2-17.71,1.1-26.59,3.58,1.06,4.78,3.36,6.07,5.51,30.18,50.12,74.9,74,133,73.94,54.49-.05,109,.12,163.48-.08,7.21,0,11.48,1.55,15.43,8.6,10.62,18.91,26.59,31.08,49.23,32.41,5.09,1.84,4.17,6.25,4.2,10.11.11,13.79.71,27.62-.08,41.37-.48,8.26,3,11.29,10.22,11.8,17.87,1.27,31.56,18.87,31.45,37.08-.12,17.59-13.94,33.26-32.39,35.31-7.93.88-9.4,4.27-9.35,11.2.11,17.77-.37,35.55-.61,53.33-4.74-3-5.25-8.43-7.24-13-14.27-32.49-38.58-51.94-74.26-54.84-21.6-1.75-43.37-1.41-65.07-1.89-3.07-.07-6.73-1.13-8.48,2.93a66.3,66.3,0,0,0-3.55,6.64c-10.76,26.7-32.53,41-61,40.09C556.42,543.39,541,531,527.89,514.55ZM724.1,402.71v-.08c6.87,0,13.76.31,20.62-.08,11.45-.65,18.9-8.41,19.19-19.4.31-11.71-6.79-20.1-18.95-20.63-13.72-.6-27.51-.48-41.22.19-12.28.6-19.5,8.22-19.58,19-.08,11.48,8.12,20.11,20.41,20.9C711.05,403.05,717.59,402.71,724.1,402.71Zm-283.88-.53v.74c7.24-.35,14.51-.47,21.74-1.1,10.57-.93,17.76-9.07,17.89-19.75.11-9.89-6.72-17.76-17.08-19.17-15.21-2.07-30.48-1.4-45.66.05-10.94,1.05-17.64,9.49-17.24,20.14.4,10.46,7.84,18.36,18.57,19C425.68,402.53,433,402.18,440.22,402.18ZM429.83,447c0,5.88-1,11.67,4.22,15.44,4.86,3.49,9.65,2.89,13.43-1.74,4.06-5,3-23.3-1.44-26.78-4.8-3.73-9.51-2.73-13.67,1.24C428.73,438.63,430.21,443.3,429.83,447Zm304.28,1.78c-.06-10.89-.36-11.92-4-14.86-4.41-3.57-8.66-3.12-12.48.77-4.6,4.67-4.27,23.38.46,27.47,4.23,3.66,8.7,3,12.72-.32C735,458.41,734.1,453.43,734.11,448.79Z" transform="translate(0 -26.95)"/><path class="cls-4" d="M794.93,363.93c-22.64-1.33-38.61-13.5-49.23-32.41-4-7-8.22-8.63-15.43-8.6-54.5.2-109,0-163.48.08-58.12.06-102.84-23.82-133-73.94-1.29-2.15-2.49-4.45-6.07-5.51-2.3,8.88-.73,17.81-1.1,26.59-.84,20.13,2.75,40.87-8,59.67-11.26,19.68-26.91,32.8-50.66,33.72-3.47-17.11-.73-34.42-1.69-51.6-.6-10.69,2-21.56-1.79-32.06,1.67-7.49,3.16-15,1.76-22.73,2.6-9.38,5.26-18.75,7.77-28.15,4.79-17.93,12.88-34.51,21.44-50.79,7-13.32,20.23-23.27,20.87-40.11.14-3.75,2.78-7.4,4.21-11.12,2.86-7.43,6.35-14.73,5-23.07l4.31-4.6,4.43-.91.63.81c-6.69,18.59-13.16,37.2-17.1,56.68-1.35,6.68-2.28,10.27,5.81,12.76,11.74,3.6,1,11.24,1.88,17a3.12,3.12,0,0,0-.66.58c-.11.18-.05.46-.07.7l.71-1.3c15.74,2.13,6-12.22,12-17.17,3-.12,4.7,2.89,4.07,5.61-2.83,12.18,5,17,13.84,21.45,3.68,1.84,8,3.08,2.38,8.19-5.92,5.41-2.92,9.43,3.67,10,7.67.69,11.81,4.66,14.51,11.2,1.73,4.19,4.6,8.55,8.87,9,11.83,1.16,18.81,9.3,26.5,16.55,4.41,4.16,7.66,2.09,11.24-1.11,3.89-3.47,7.05-4.2,10.2,1.62,3.64,6.73,11.32,6.45,17.48,6.47,35.77.08,71.5,3.13,107.32.65,11.28-.78,22.38-.1,33.84,4.25,11.27,4.28,24.52.23,36.11-3.16,13.15-3.83,25.28-9.76,39.38-12.18,10.29-1.76,23.22-4.88,31.69-13.92a18.09,18.09,0,0,1,9.2-5.45c14.91-3.22,27.37-11.75,40.08-19.14,5.36-3.11,17.29-3.84,13.63-15.91-.09-.3,0-.94.22-1,13.12-5.43,6.27-25.12,21.69-29.89,3.72-1.15,5.89-9.59.45-15.14-2.09-2.13-5.11-5.33-2-8.43,2.14-2.1,5-2.71,8.86-1.26,8.32,3.12,9.76-3.51,8.14-8.88-2.38-7.89.45-10.65,7.53-12,10-2,9.94-2.13,2.88-12,9.85,3.09,11.72.24,12.51-9.37,1.23-14.91.45-30.47,6.62-44.75,3.5,9.21,1.17,18.69,1.14,28-.11,34.79.31,69.6-1.84,104.36-1.81,29.35-12.56,54.2-30.65,78.21-15.28,20.28-35.41,32-54.91,45.59-7.25,5.06-16.12,6.51-24.81,7.51a38.64,38.64,0,0,0-18.05,7c-5.68,4-8.14,8.12-5.41,15.58C797.12,344.85,795.87,354.52,794.93,363.93Z" transform="translate(0 -26.95)"/><path class="cls-3" d="M794.86,875.23c.32-5.25-.49-10.79,3.91-15q-.12,9.66-.25,19.31Z" transform="translate(0 -26.95)"/><path class="cls-4" d="M797.84,632.27c-1.88-2.65-1.85-5.21.38-7.66A6.92,6.92,0,0,1,797.84,632.27Z" transform="translate(0 -26.95)"/><path class="cls-4" d="M928.57,42.72a12.66,12.66,0,0,1-.7-1.72c0-.14.5-.41.77-.61a10.16,10.16,0,0,1,.52,1.65C929.19,42.23,928.78,42.49,928.57,42.72Z" transform="translate(0 -26.95)"/><path class="cls-4" d="M770.54,29.28c-15.13,3-30.42,1.43-45.61,1.28-17.75-.17-35.57,1.86-53.23-1.29,3.13-2.5,6.88-1.88,10.42-1.89q39-.12,78,0C763.67,27.37,767.42,26.76,770.54,29.28Z" transform="translate(0 -26.95)"/><path class="cls-4" d="M536.73,30.38c-4.56,4.13-10.65,4.43-16.11,6.13-16.77,5.22-32.71,11.92-46.52,23.1-2.72,2.2-5.22,5.23-9.34,5L464,62.49l3.81-3.68,1.61-1.69a12.21,12.21,0,0,0,6.2-6.2,7,7,0,0,0,6.83-4.56l.08-.06,5.33-3.58a1.45,1.45,0,0,0,1.57-.15c6.88-.26,12.64-3.56,18.43-6.8a25.58,25.58,0,0,0,16-5.85c2.54.78,4.67,0,6.59-1.71l6-.49C536.54,28.6,536.64,29.49,536.73,30.38Z" transform="translate(0 -26.95)"/><path class="cls-4" d="M888,29.38a73.27,73.27,0,0,1-30.75-.14C867.56,26.35,877.81,26,888,29.38Z" transform="translate(0 -26.95)"/><path class="cls-4" d="M665.79,29.26a47.68,47.68,0,0,1-24.45,0A35.39,35.39,0,0,1,665.79,29.26Z" transform="translate(0 -26.95)"/><path class="cls-4" d="M844.73,29.26a18.62,18.62,0,0,1-13.64,0A12.44,12.44,0,0,1,844.73,29.26Z" transform="translate(0 -26.95)"/><path class="cls-4" d="M436.16,91.34l3.86,1a7.58,7.58,0,0,1-5.13,6.85l-.62-.81c.36-2.2.73-4.4,1.09-6.6Z" transform="translate(0 -26.95)"/><path class="cls-4" d="M666.65,580.52c8.33,9.86,4.86,21.46,4.18,32.34-1.52,24.18-4.51,48.29,1.93,72.28,1.56,5.8-.07,12-3,16.85-8.71,14.6-18.42,28.71-31.24,40-39.87,35.23-106.27,20.19-132.84-25.1a44.57,44.57,0,0,1-6-17.42c-3-27-6-54-2.42-81.11l3.16.81c.66,16.85.69,16.73,17.33,20.4,9.89,2.18,20,4.09,28.94,9C581,667.6,594.88,698.2,596.2,735.88c.51,14.8,5.78,18.54,17.74,10.39,10.95-7.46,27.73-8.38,31.11-25.46.39-2,3.59-3.4,5.47-5.1,2.76-2.48,5-5.37,5.63-9.09,3-17.06,8.37-33.7,7-51.5-.94-11.89,0-23.93.18-35.89,4-2.46,4.29-6.36,4.15-10.48C667.14,599.34,666.91,589.93,666.65,580.52Z" transform="translate(0 -26.95)"/><path class="cls-5" d="M666.65,580.52c.26,9.41.49,18.82.79,28.23.14,4.12-.14,8-4.15,10.48l-162.79,0-3.16-.81c-.19-10.41-.24-20.82-.64-31.21-.21-5.53,2.25-8.82,7.21-10.62a84.16,84.16,0,0,0,30.76.57l4.39-.1c32.59,1.62,65.18,1.43,97.77.13l9.44,0H652l4.64-.27,8.11-.41C665.36,577.85,666,579.19,666.65,580.52Z" transform="translate(0 -26.95)"/><path class="cls-4" d="M527.89,514.55c13.1,16.47,28.53,28.84,50.84,29.53,28.51.88,50.28-13.39,61-40.09a66.3,66.3,0,0,1,3.55-6.64c5.59.47,5.43,2.9,3.1,7.23-3.24,6-5.91,12.3-6.29,19.44s-7.77,9-11.65,13.55c-14.82,17.33-33,24.85-56.79,23-13.81-1.07-25.19-3.16-34.64-13.27-7-7.52-10.95-16.81-14.61-26.13C520.92,517.31,524.5,515.52,527.89,514.55Z" transform="translate(0 -26.95)"/><path class="cls-4" d="M636.83,577.17c-32.59,1.3-65.18,1.49-97.77-.13,9.87-3.73,20-5.8,30.59-4.26a22.24,22.24,0,0,0,6.41.17C596.64,569.87,616.79,572.56,636.83,577.17Z" transform="translate(0 -26.95)"/><path class="cls-4" d="M534.67,577.14a84.16,84.16,0,0,1-30.76-.57c8.78-3.38,19.79-1.88,25.68-11.9C534.58,567.57,533.56,572.79,534.67,577.14Z" transform="translate(0 -26.95)"/><path class="cls-4" d="M664.71,576.52l-8.11.41C659.13,573.36,661.73,571.32,664.71,576.52Z" transform="translate(0 -26.95)"/><path class="cls-4" d="M652,577.2h0Z" transform="translate(0 -26.95)"/><path class="cls-6" d="M724.1,402.71c-6.51,0-13.05.34-19.53-.07-12.29-.79-20.49-9.42-20.41-20.9.08-10.81,7.3-18.43,19.58-19,13.71-.67,27.5-.79,41.22-.19,12.16.53,19.26,8.92,18.95,20.63-.29,11-7.74,18.75-19.19,19.4-6.86.39-13.75.08-20.62.08Z" transform="translate(0 -26.95)"/><path class="cls-6" d="M440.22,402.18c-7.26,0-14.54.35-21.77-.08-10.73-.65-18.17-8.55-18.57-19-.4-10.65,6.3-19.09,17.24-20.14,15.18-1.45,30.45-2.12,45.66-.05,10.36,1.41,17.19,9.28,17.08,19.17-.13,10.68-7.32,18.82-17.89,19.75-7.23.63-14.5.75-21.74,1.1Z" transform="translate(0 -26.95)"/><path class="cls-6" d="M425.47,185.57l-.71,1.3c0-.24,0-.52.07-.7a3.12,3.12,0,0,1,.66-.58Z" transform="translate(0 -26.95)"/></svg>